<?xml version="1.0" encoding="UTF-8" standalone="no"?>
<!-- Created with Inkscape (http://www.inkscape.org/) -->
<svg
   xmlns:svg="http://www.w3.org/2000/svg"
   xmlns="http://www.w3.org/2000/svg"
   version="1.0"
   width="153.57001"
   height="31.9"
   id="svg2490">
  <defs
     id="defs2492" />
  <g
     transform="translate(-252.07133,-146.45262)"
     id="layer1">
    <g
       transform="translate(0.9991887,1.0007498)"
       id="g2537"
       style="fill:#000000">
      <path
         d="M 252.07133,174.71437 L 294.75396,174.71437 L 294.75396,176.24862 L 252.07133,176.24862 L 252.07133,174.71437 z"
         id="path59"
         style="fill:#000000;fill-opacity:1;fill-rule:evenodd;stroke:none" />
      <path
         d="M 310.02708,174.71437 L 403.64296,174.71437 L 403.64296,176.24862 L 310.02708,176.24862 L 310.02708,174.71437 z"
         id="path61"
         style="fill:#000000;fill-opacity:1;fill-rule:evenodd;stroke:none" />
      <path
         d="M 347.76646,154.56649 C 358.81233,155.48662 362.05096,149.62324 362.01696,146.45262 L 369.55108,146.45262 C 369.51708,155.75949 355.06208,157.36174 347.76646,155.72549 L 347.76646,154.56649 z"
         id="path63"
         style="fill:#000000;fill-opacity:1;fill-rule:evenodd;stroke:none" />
      <path
         d="M 268.53733,163.46437 C 268.67383,161.72574 269.62833,160.43024 271.50346,160.43024 C 273.37858,160.43024 274.12833,161.82774 274.23071,163.46437 L 268.53733,163.46437 z M 276.48071,167.69162 C 275.21933,168.40762 273.82146,168.98699 272.21921,168.98699 C 270.13971,168.98699 268.67383,167.82799 268.53733,165.74837 L 277.43533,165.74837 C 277.43533,161.24837 276.07183,157.97549 271.29908,157.97549 C 267.31033,157.97549 265.33283,161.04362 265.33283,164.75987 C 265.33283,168.98699 267.78758,171.44187 272.04883,171.44187 C 273.85583,171.44187 275.25333,171.10099 276.48071,170.41887 L 276.48071,167.69162 z"
         id="path65"
         style="fill:#000000;fill-opacity:1;fill-rule:evenodd;stroke:none" />
      <path
         d="M 302.59496,168.44174 C 300.72021,168.44174 299.83358,166.36212 299.83358,164.65749 C 299.83358,162.74837 300.54933,160.70274 302.73133,160.70274 C 304.64046,160.70274 305.45858,162.44149 305.45858,164.58937 C 305.45858,166.66899 304.64046,168.44174 302.59496,168.44174 z M 305.62908,158.45274 L 305.62908,160.15749 L 305.56108,160.15749 C 304.67446,158.72562 303.37908,158.17987 301.74283,158.17987 C 297.99258,158.17987 296.42458,161.62337 296.42458,164.65749 C 296.42458,167.99837 297.85646,170.96449 301.53833,170.96449 C 303.34508,170.96449 304.81096,170.04399 305.42458,168.98699 L 305.45858,168.98699 C 305.45858,171.13499 305.28821,173.82824 301.70871,173.82824 C 300.68583,173.82824 299.04946,173.28262 298.06096,172.73724 L 297.78808,175.49849 C 299.35633,176.14624 300.82221,176.35112 302.11771,176.35112 C 307.36783,176.35112 308.73158,173.14612 308.73158,169.73712 L 308.73158,158.45274 L 305.62908,158.45274 z"
         id="path67"
         style="fill:#000000;fill-opacity:1;fill-rule:evenodd;stroke:none" />
      <path
         d="M 315.72046,163.46437 C 315.89083,161.72574 316.84546,160.43024 318.72058,160.43024 C 320.59558,160.43024 321.34546,161.82774 321.44783,163.46437 L 315.72046,163.46437 z M 323.69783,167.69162 C 322.43633,168.40762 321.03858,168.98699 319.40221,168.98699 C 317.32271,168.98699 315.89083,167.82799 315.72046,165.74837 L 324.65233,165.74837 C 324.65233,161.24837 323.28858,157.97549 318.51571,157.97549 C 314.49296,157.97549 312.51583,161.04362 312.51583,164.75987 C 312.51583,168.98699 315.00433,171.44187 319.26583,171.44187 C 321.07296,171.44187 322.47046,171.10099 323.69783,170.41887 L 323.69783,167.69162 z"
         id="path69"
         style="fill:#000000;fill-opacity:1;fill-rule:evenodd;stroke:none" />
      <path
         d="M 281.21958,170.96449 L 284.49258,170.96449 L 284.49258,164.82787 C 284.49258,163.22562 285.00383,160.70274 287.35621,160.70274 C 289.43583,160.70274 289.46983,162.74837 289.46983,164.28262 L 289.46983,170.96449 L 292.70846,170.96449 L 292.70846,163.05512 C 292.70846,160.25949 291.41296,158.17987 288.48121,158.17987 C 286.77658,158.17987 285.37871,158.72562 284.35608,160.15749 L 284.32171,160.15749 L 284.32171,158.45274 L 281.21958,158.45274 L 281.21958,170.96449 z"
         id="path71"
         style="fill:#000000;fill-opacity:1;fill-rule:evenodd;stroke:none" />
      <path
         d="M 328.23221,170.96449 L 331.50483,170.96449 L 331.50483,152.75937 L 328.23221,152.75937 L 328.23221,170.96449 z"
         id="path73"
         style="fill:#000000;fill-opacity:1;fill-rule:evenodd;stroke:none" />
      <path
         d="M 336.34596,170.96449 L 339.61858,170.96449 L 339.61858,164.82787 C 339.61858,163.22562 340.12996,160.70274 342.48233,160.70274 C 344.56183,160.70274 344.59583,162.74837 344.59583,164.28262 L 344.59583,170.96449 L 347.83483,170.96449 L 347.83483,163.05512 C 347.83483,160.25949 346.53933,158.17987 343.57333,158.17987 C 341.90258,158.17987 340.47071,158.92999 339.65258,160.15749 L 339.61858,160.15749 L 339.61858,152.75937 L 336.34596,152.75937 L 336.34596,170.96449 z"
         id="path75"
         style="fill:#000000;fill-opacity:1;fill-rule:evenodd;stroke:none" />
      <path
         d="M 367.91471,170.96449 L 371.15333,170.96449 L 371.15333,166.36212 C 371.15333,164.58937 371.15333,161.28249 373.81258,161.28249 C 374.39221,161.28249 374.97158,161.38487 375.27846,161.55524 L 375.27846,158.24837 C 374.93758,158.17987 374.59671,158.17987 374.25583,158.17987 C 372.31271,158.17987 370.98283,160.12337 370.84646,161.28249 L 370.81246,161.28249 L 370.81246,158.45274 L 367.91471,158.45274 L 367.91471,170.96449 z"
         id="path77"
         style="fill:#000000;fill-opacity:1;fill-rule:evenodd;stroke:none" />
      <path
         d="M 377.97171,170.96449 L 381.21058,170.96449 L 381.21058,164.82787 C 381.21058,163.22562 381.72196,160.70274 384.07433,160.70274 C 386.15396,160.70274 386.18796,162.74837 386.18796,164.28262 L 386.18796,170.96449 L 389.46058,170.96449 L 389.46058,163.05512 C 389.46058,160.25949 388.16508,158.17987 385.19933,158.17987 C 383.49471,158.17987 382.09683,158.72562 381.07421,160.15749 L 381.04021,160.15749 L 381.04021,158.45274 L 377.97171,158.45274 L 377.97171,170.96449 z"
         id="path79"
         style="fill:#000000;fill-opacity:1;fill-rule:evenodd;stroke:none" />
      <path
         d="M 351.34621,165.71437 C 351.34621,169.53262 353.66421,171.47587 357.21008,171.47587 C 361.84646,171.47587 364.40333,167.96437 364.40333,163.60049 C 364.40333,160.05499 362.15333,157.97549 358.70996,157.97549 C 353.97108,157.97549 351.34621,161.41887 351.34621,165.71437 z M 353.86908,165.88487 C 353.86908,163.22562 355.43733,159.88462 358.60783,159.88462 C 360.75546,159.88462 361.88046,161.69137 361.88046,163.60049 C 361.88046,166.49849 359.86896,169.53262 357.17608,169.53262 C 354.92571,169.53262 353.86908,167.93037 353.86908,165.88487"
         id="path81"
         style="fill:#000000;fill-opacity:1;fill-rule:evenodd;stroke:none" />
    </g>
  </g>
</svg>
